<mxfile host="app.diagrams.net" modified="2024-01-11T12:59:18.031Z" agent="Mozilla/5.0 (Windows NT 10.0; Win64; x64) AppleWebKit/537.36 (KHTML, like Gecko) Chrome/121.0.0.0 Safari/537.36 Edg/121.0.0.0" etag="pkzDQcc2vgCuJ0D8nY_8" version="22.1.18" type="github">
  <diagram name="Page-1" id="fbaLfpypZ8GYNSu_C7db">
    <mxGraphModel dx="956" dy="524" grid="0" gridSize="10" guides="0" tooltips="1" connect="0" arrows="0" fold="1" page="1" pageScale="1" pageWidth="900" pageHeight="1600" background="#FFFFFF" math="0" shadow="0">
      <root>
        <mxCell id="0" />
        <mxCell id="1" parent="0" />
        <mxCell id="v-HFWOE8uSQpCthZWPPG-1" value="" style="shape=image;verticalLabelPosition=bottom;labelBackgroundColor=default;verticalAlign=top;aspect=fixed;imageAspect=0;image=data:image/jpeg,/9j/4AAQSkZJRgABAQAAAQABAAD/2wCEAAYGBgYHBgcICAcKCwoLCg8ODAwODxYQERAREBYiFRkVFRkVIh4kHhweJB42KiYmKjY+NDI0PkxERExfWl98fKcBBgYGBgcGBwgIBwoLCgsKDw4MDA4PFhAREBEQFiIVGRUVGRUiHiQeHB4kHjYqJiYqNj40MjQ+TERETF9aX3x8p//CABEIARsDTgMBIgACEQEDEQH/xAAyAAADAQEBAQEAAAAAAAAAAAAAAQIDBAUGBwEBAQEBAQEAAAAAAAAAAAAAAAECBAMF/9oADAMBAAIQAxAAAALzgAAAAAYAAAMABgAxMYmMAYDYmMTYA2JsE2xNsl0yW2S6ZDpklsg0CC2ZvQMzQMzQM1qGFVZktQyNUZrUMo3glahktQyNUZGgc9VRkaoyWyMTVGK2kzWyMTVGS1RktUYO2ZGiIKQgAAAAAAABgAAwAGADAGAMGMTGDGJjBjAbE2xNsTbE2xNsTbJdMl0yS2Q7CS2QtAzNAzNAwt2ZGgZrUMjQMp3zEtUZrVGa1RmWzmt0ZrVGa1RktUZTqiFqjJaoyWqMlqjB2zJaoynaTJaoyWskAAAMAAABgAMAYAwYAxgwYwBgxgyhUMBsGMG2JtibYMoTbE6ZLpkumSWyDQMzQM1tzhWPWZGiIWgZmgZRrym5rJmaIhaIzeuRjeXUZLRGa1RmtKOdVILaTJaoyNEZroyMKNTBaoyWiM1ojJaycoAADAAAGmDTBpgwBgNpjBgxgxgxjaY2MGMKGDbFQwoYNsVFCbol0xNsTpklhFOzL4n6r5w4vuPifpj052ggsJuuc+T4u/lPrejx/dMC0RVWT8Z9X80cP2PyXvHpR0ZEK2BtwnzOXbyH1uePYc60RnqbkfK/TeAcH1PzXuGufXzma0RmtEZzojzwAAGAAAwAYDAGANpjaYUmDGDGNpjYwpUFKgYxsYUUDGFDChg2wZQm6E2xFMmhnPj3h5+nYGc6SSUBntR51d4cHTtmZK0TpNmeHoBwL0Ec2W2ZDYaRpucS9APOfXymE2C3x2GuvQ8+PTwPP5urnInRGatEK0eUAAAwABgAMAYA2mFTQMBsYNUFJjaobTG1Q2MbGNjHSY6THSoKVBSoKGFDBlCGCYAAAAlQSUhUAABFyQqCWUU0wmpMs9YIKRW+OpZIRzdGJgrQ6tcl31xvrlYaZRyYdPPUqkQrRE6SeOAAAwAaYADAG0waY2mNpjaY2mNqhtMdJjqaHSY6THSZTVDaodJjpMdKhtUNqhgAAAAAAAAAAAAAAJhKpCYxgAmiIuSBg9IsAIxWufzt4qvO+lj1F4/R4X1XJqCqee8+HRj2zObklUiVUnigAAMAGmAAwBtMGA2mNpjaY2mOpodTQ2qG1Q2qG1Q6THSZTVDqaHSY6mimmU0xgAAAAAAHmno8XxfOfoHV+a+ifcmG4AAACaA5Plj7K/i+A/QK+Lo+wnHYkYOpMqScLg6/hNqr2vYPleb7Oj4r67y/DPu5lmWPRl5sppeiVUiTR4YAADABpgAMAbTGANpjaY2mNplNMppjqaHU0OpodTRTmimmVU0OpoppjqaKaZTTGAAAAAAY/AfV/LnsfT0zm+Q+45D5P7f80/RDcAAA5erwTxPrvk/dPa+K+x+OPtOLo8U8b6/5H3D1gBicSrXFrxPH7a7s+9NSFSy/j/rvnjr9n533fC3gQQmveKakSaPDAAAYANMABgDaYNMbTG0xtMbTKc0OpZTTKqWU0ymmVU0OpopzRVSyqmh1NFOaKaYwAAAADn+LPoeXg5D788/0A5tvjDyv0P477kA4Cu3yeg7vnPovhD6Du4tD1vi/qflj6lZ8JOnDofQnncZ7q8H3qBKPB5Pd+NPu65t+HVmF+dfy30Pxnfj3/Xx12UVApaEnIIR4gAADABpgAMAbTBpjaY2mNpjaY6llNMpyyqllVLKqWVUstzRVRRVRRVSy3LLcstyyxMAAAPlu/wA32D1OPs5T5L7P430Dy819qeJj6HqGenyn2J43pvQPmvpOM8L0/nfWPovjPrPlD6jm1wPH9vwfpQWoc/TIMSH819HB8t9V8X9FHoOfMPI7fN+tqpEKXAIQSIEI8YAABgAAMAYAwBtMYmNpjaY2mOpZTTKcsqpZVRRVRRTll1FFVDLqGaOKLcM0cM0cMus6LJCiQyq0X8x9J8kep4n0knn/AEfJJ2x8lZH1/B2jEhy0fFfR9Xyh9T817vzh9p423gmP2uOg0kMSKUg5SPI836X5E+h8Xns9v04CpUjkQIkaSBEnlAAAMAABgDExiYwBtMbQU5ZTljaZTllOWW4Zbii3DLqGXWbNKyo0edF1mzSsmavKjSsmavJmpmGhmGhmGnJuHm+T6fonmr1WOoRoZhZmFkBWGgeLfrB43rWiiApSikkUpRSkM/kPr/mDBPrPpocDSkpShpIaSHKR5wAADAAAGmDQNoG0DaY3LKExuWU5ZTkLcMtwy3DLcM0ebNHmzR5s0ebNHmzR5M1eTNXkzV5BsZBqZBqZBqYhssg1Mg1Mg1WQamQarMNDINDNGhmGizDRQizMLMwtQFQIm5RSlFKUVKQ0pKUoqVJyAAAMAAAaBgDAGJjExiY3LG0FOQpyFuGU4ZbgNHmy3mzR5ho8w1eTNTJmrxZq8WbGLNjENzANzANzANzAN1iGxiGxiGxiGpkjYxDYxDUyDUyRssg1Mg0Mg0M0arMLMwtSi1AUpRUpAkhqZKUoyAAAABiYAA0wAGIG0DaBuWNyFOQpwynDKcBbgLebLIDQgNDMNTINjINXiGxiG5gG5gG5gG5gG5gG5gG5gGxiGxgG5gG5gG5gG5gG5gG5gGxiGxiGxiGyyDUyDUyDQzDRQiyEWoRSmSpUjSANGZFszKZDGITAkKcI0M0avKTcxRuYI6TmDpOUOp8gdZxs63ws7ThZ2nCHccId5wI9A4EegcEnonBJ6J56PQOCT0Tgk9A4EegeezvPPZ3nns7jgZ3HAzuOBnccDO44Gdxwh3HCHccSO44kdxxB2nGHYcYdj42dZx0dRyUdRyUdL5WdK5w6DANlmFpIaYIpHbPXRxp9pwFdJxnbyELv4yZ69DhnTrOB6bnDfZymNd/KYruZwzv1HnrXqOA7+YwfochiehJwz09Bw579ZwT3ZHNXfxnPt25nBrvuecbdhwY96OfD1eQjP0sTkrp1PM2rrPL33s4a9DjM49LAwz9CzhjbqOCt9zi07szmv0UcB6qPKO/Y8p+hqeS/UxOCvTzOB+rJ5h36nmHfseaejBxnpwedPr5HlR30eYtuk4TrxMzu5CK7IOS66z//xAAC/9oADAMBAAIAAwAAACEADzgDwTAiCgxAgRASwiAiCwAAiAwAAhARAxzgAyyQCCTCAASiAAgAADyAQDBgBgDgCgBDjCAAwzgBAQhzygCxCiQBQAiRQBRgAABTABSBQAAADhQQRBhABwAiBAQBTwgwAABDCBRgRAQCSASTwxAwTDCQSiAgDQAAByiiiCQxCABAwASDCQQSgDAQAAhgRSTRSARRhRQxRBwCADxzABwBQDwCABQwCDDAzigBRSASCRQhgRhQyyQDTxACBQjhzSyhgCQhBAgABQDAARQCjSBiBgRhRBAQQAggCAByzzygDTxQhhyAiSAgDD2DoQjBABQADxQCgQAABgSAyCAQBgCSAghTzzzzzzzzhQAAAiyiKIBb0MBSgQBQADxQCRwCBSihhBhCSRAiDxQDzzzzBgDTzwRQQgzAdsSxTgDFgQABQADxQBTwDzxQCgCAhxQCgDxQDzzzySzgzzyjQDgAAEZiAAAiChSgBQADxQCjwADAiRARRCihgSDBgDzzyhhSjiSoRRCyQJiAxaTHABCQgBQABBQDgAAAABAwCSCRAiiBRRRDzwzgCTSDBDyCAghiBApKxCAByQBQDwABABzjDCBASCghSASRARACgABQwAxRyDBThAgTBgiQChRCQjQBABwAghAAQADADwxhSASgiCRiABDCAChTQAiDjjCADAQhhGAQyABgAABSiyQSAhCwAQwwDAAABDDzDDAAAAxjABwBAiSBgCigARwwhDABQAAACzABhBADACQCgQCgSQBAihBQwwwxywADSwAARgCiQihAgACATAADwhCjxySAgACiAQCjRBRwCBAAAAAAADDzzwwgADDABDACASQiQDAADCADyTyQDQByACwBTAwgwAiQSQggDTTSAgAgDzzDSADAiBSRgAAQAggiShwSihwSxAgzRhhSwwCBATwygxiAyQjgziABCwSwQyBjghxyD//EAAL/2gAMAwEAAgADAAAAEPPPODPDNOKOHGLJGJPDMDIPCFHIDDGOHJGHPPJPPLELNMJDDOMMPPPPPIPBMOGHIPIPLHPPPLDDPLGJGHPPKPELJFFFGLPAPHENPPMIFONPPAFOPHHGHHIHPOIFDAPPDDMMDGMNOGJGBNNJBLNDMDLONLFIMPAJPPAHLKKJNDHPMNDAPJMPLNKONHAADKi1POFoDNHF3HFAlMILr/PIGPPBPFJFFPDJNPHNOKPFMFJJNOOHONHDNGNLOFONGPPPDOGFPPNHPAPPFOFFHKKNMOJODPNFFBDKLKJJOPPPPOBNPPHGPPGJKPHPErPDDOFPPEKPPKPPCHHPHJPJJNGGJLPGGHPPPPPPPPPHAHBDPPOBLFA2wFPDPPPKPPKNPPLPLKOOMPFNGJNPFFFPPPOMdfPPHHJFJMDEodefSFXJCPPPKPPKFPPPPFAKKKOHFKFFPFFFPPPFRKHfPKLDGHeCE3VICBmvFPPPMKPPKPPPPPDLPJNNOPHJOLHFHPPKLfJLeMBASDNdtIPaZGUNONDPPFKNNKLFAFEJEDNJJNGKLNFPPFPPKfNScGAsCeDKavpCG9sUIIHOPPFPFFFIGPPPJMHILKPOLPGDFFKFAJDGcMJIMPUaFHNOPFRTHMNONPPAPBGGFMJDDMFPDPPPLLGMLOIMNPMIBbFCLMODEKHMDOPUcJDMADPPAFKLLLOLHPOBPPPPCBOMMPPONMMMDHPIHKEDLOHFPLCLPPLGNKBPPAFLNEGGGPNBNCPNCPBPKGKOGHHPLDHPPANPDOJHKPNGONCAEOBKPPPCPKPPPJKLJKKLJKPMHHELPDDEMAAAMPPPPPLDPPLHLDKBJDPAPOPOIOPJPJENGPJMLCPPDDDDCPPPCBANPNPPNPNPHMPIOOGJHLGPGPJBLAOKHPJPPILOIAPHGFLAMKMJMHOFPMBJFPCrmvtojNiusnsNFFPP/8QANBEAAQIDBAUJCQAAAAAAAAAAAgMEAAUSAQYRMhAUICJQEyMzQlJTYoDSFSQxQ1FykrGy/9oACAECAQE/APJriJZdF35m8eTKeornWDdzQn4M3p0VDVTxAwExMC68Nif3XmKbY+VWljlXm+2BnolUkGXPJo4FevXFa/szeqJu/wDZ7FZyKKipjkAO2cXek77Wjm8zP3tbo0+wHD3C6LdE1lzoAPmQ2dtXafKt1klg8G0E2lqrzVAdJG47sOHOG6LhE0lQrA4Uua3TXTcS16qzLwb4fvZncnUmyaCWvKogHSUdeJVd6Uyveaob/eHvnwayzGLbPptWJ4jjBBRpvBKVnk4l2Lp0DdasFKDyHTaQ/lEzukLFissjMXxq7nJp19cysEf6hg2UbMWqJnWYJBznCPhFtuO1jFtuOkhEs0EIlm8vX//EACURAAEDAwIGAwAAAAAAAAAAAAIAAxIBEVAgMgQQIjBCgBRAUv/aAAgBAwEBPwD03dARFuOTKLwy8w5GcxAfwmwmUU84MYBswllbtCMkQkO5UV1fnByMoYWugtNKx6hXyCqMTCegU25ArwRvOHuyLLkGz6EHESKJAqlIpYPx+iOFHLX71PRH/8QASRAAAQQAAgUHCAcFBwMFAAAAAAECAxEEEgUTITFREBQiMkFhcSBCUmKBkaGxIzAzUGBywTWCktHwFTREY3SE4QYkVCVDZXOD/9oACAEBAAE/Avu2iiiiiiiiiiiiiihidBn5UKKKKKKKKGps9q/MooooooooYnQb4FFFFFFFCpsXwETYnghRRRRRRRQidFPAr72oooooooooooooooYnQZ+VCiiiiiiihibPa75lFFFFFFFEafRt8CiiiiiihU2L4CJsTwQooooooooanRb4FFFFFfedFFFFFFFFFFFFFDE6DPyoUUUUUUUUMTo+13zKKKKKKKETaniRp9GzwKKKKKKKFTYvgInRb4IUUUUUUUUNTot8EKKKKKKK+86KKKKKKKKKKKI0+jZ+VPkUUUUUUUUMTZ+875lFFFFFFCJtI0+jZ4FFFFFFFCpsXwETot8EKKKKKKKKGp0G+CFFFFFFFFFfedFFFFFFFFFEafRs/KnyKKKKKKKKGJs/ed8yiiiiiihE2oRp9GzwKKKKKKKFTYvgo1Oi3wQooooooooYnQb4IUUUUUUUUV960UUUUUZTE4iDDMuR2/cnapg8RBiI26t3SRqW1d6UUUUVyUZSaSGFmeVyNT5+Bg8Xh8QmVrunbuiu/atmUorloyk0sOHbmlfXBO1fAweIgnjajF6SJtYu8ylFFFFGQxM0MDOm7aqbG9qmHlhnYmrdtREtvagrSiuSijITPigbci+CcTDSRTMTK7aibW9uwVvLRRX35RRI5scb3u3NS19hK6Sd7pX9Z39UNe6KRr2L0mrsIJWzwRyt3OSyvIRCjFTOxUzpF3bmJwaL0VRUXbfuMFiOdYVknnbneKCpyUUIhsaiuXciWvghPI/ESuld27k4JwLdG9FatORdimGlTEYeOXjv8RU5aEaSObFE+R25qWSZ5Xukf1nbxr3QyNeze0YrZY2SN3ObY5OWhGi5WNc525EtfYSq+Z7pH71+HcW6N6OavSTcRuSaFkiecg5v39RRXJpZawTk9JzUNW6rodFJwNBqq4NyejKqfqKnLQiGOdkwWIX/AC1EjdW4fFJ6JoFVy4pnBWr7xU5aEQ0jswM/eiJ71NW7gOik35TQa/QTs4SfNBUK5EQRDSmzCV6UjU/U1b63Donp2GiduBRPRe5ByFciINQ0hswUnerU96mrdW4dE/tQ0Rtwr09GVfiPQryq++8XAs0WT1kX3DMExN9kmAjcnnfAweG5vG9t7335WIi1sEjPSQZgWp1rH4GJU7TCYPm7plvrZfgL5CGIhWaBzE7a+CjMC1N9kmAiVO0wuE5vrdvWVF9wvKghicPr42t4PRRmCZ22SaPjXZ0vgYfDc3iVt+eq+8dyoNJoNdCrO9FGYJib7JMBE7iQ4Xm7HpfWfY8X8HL5CCcqjvIaJyuHcqDRvK/aP/B6+QgnKo7yGjeVR/KjLTeMGcr95J+FE5VF8hBOVwvKzqoL1l8VG7uV478Qryt3IL1l8RORVHJsFF/C6/UKUOpNqqiInapJpPBM/wDcV35UsTTOFTzZvcRaUwL1+1y/mShFRURUVFTiKbvEUUX8CqqIm0dpLAN34mP32R47ByLTMQxV4X9YskaLSvbfC+RJGOXouRfb9XjcbHhWWu1y9VnExGKnxDrld4J2IQ4PFzpccLlTjuT4n9lY30WfxoTYPFQJckLkTjvT4GGxc+Gdcbtna3sUweNjxUdt2OTrN4crhfwJj9Ix4RqJWaReq3+ZiMVPiXXK++7sQs2KYPSWJwyolq9noL+hh8RFiIkkjXZ9Ri8ZBhW3Iu/c1N6k+ksbi35I8zUXzGbxNCY5W2rY0Xgq7RFxLsuGt69KtXfaP0LjmIjkaxfyrtQw2lcZhnZJcz0Te13WQw+JhxMeeJ18eKePk2WnJLK2KN8juq1LUxE755XSv3r8DAaMaxqSztt/YxfN8RdvIhpHRjVas0DaXe5idvgYfEOglbKzs7OKDJGyMa9u5yWnt5MqqPaqfgOeVsML5HbmpZNM+aV8j12uNG6JSVqTT9Veqzj3qMjjjSmMa1OCJRiMJh8QlSRovzNIaPfg3It3G5di/opovF83xKIvUfsd/Py8ZiW4aB8q9m5OKkEGJ0liXKrvzP4dxhcJBhWZY2+K9q+PJD+2f90/9eTF4KDFNp6bex3ag5uJ0biv6p6EEzJ4WSs3OTycpamnZcsEcfpv+DTRcCTYtL6rEzqL5Ok4Ehxb0b1XdJvtNDS5sM6P0H7PB20RBXNTt9xI/N+A9OvVuCRvpyIi/MwsWuxMMfpP2/MTdy4+FJ8JMxfR2eKG9DDP1mHhf6UbV8rT/wDdYf8A7f0MFisVg2LKkauhdv4WRTaUVjJ1ZGrVr6JvWy8bI1crUVzaXtQg/bP+5f8AqSo9WdB1O7F8DEaQx2GkbE+KJ7ndVGXfuMdjsTPlZPCjFRbTYqL8TQv9x/8A0d5VmnvtcP8Akd8zQX+K8Gfr5WnPtMP+R3zNB/4rwZ+pYov4CVURLU0k7B4qHVpi4kcjrTpfM0Xox7JmzukYqJeXKt+RjZkgws0i9jfibk9hhGavDQMXe2NqfDl50uv1er2azJmvty5uXT2IZkjg868y9xoiD/09Ukbslcq13LsMLhpMO3V6xHRp1UVNqe3kg/bSf6pxPhm4jKkm1iebxUgweHgcr2ouZfOcuZfiadjc6CJ6eY/b+8aFkR2Dy9rHqnv28lLwKXh5GnWdHDv4KrfftNCyViXsvrs+LdvJXcZe4ruFpKNMSZsWjfQYifqaFZUM7/SkRv8ADyr+AcViGYaF0r9yfFeBPicVjpa2ra9GNNyCaFx2W8rE7sxWLwM3nRv+Cmjsc3FxXVPb1k5JHsYxXOVERN6qaS0guLflbsiauzvXiaMwi4nEps6DNruV+LekkjGxIuVaVc6J2WVN9tkb/eM9Z+zJl3jMU9ZWMdFWa6XOi9l8mLcn9ozrMiq3XLmRPRQdpnCJF9FbnbkZVCf2hTJJpIWtTpvpFtEIsXHKqIiPReDm1s4kH7Z/3L/1J8WiRM1GWR73ZWcL/wCCfE6TwiayXUyx3trYpjNLw4nDSRNjfbk7jQKLWKXi5hjWx5ole6DYjtkvsP8Atv8A48c3DuSkfgW32pvF5cbBzjDSR9u9vihHI+N7Xt6zVtPYQzsnibIzcvwUXa3kYhicSyGN0q9m5OK8Bznverl2ucvxUw8Oow8UXa1Nv5l3/gTT8qrNDF2I3P79hoXDNjwqS105PlyY7DMxOHcxU2+avBTQ8itx0XrorV+ZJI2NjnuWkRLUx+Pfi38I06rf1UwmDlxUmVm5Os7gLpHC4Bmow7M9b3XssZ/1DNfShYqdymExkOLZmjXdvRd6D8PA9cz4WOXvaimrh1uryMy886tJX2QzD4di5mRMReKNrk05g92Kb3I/9FNHYPCYvCutMsrHdZF2iYCdURk2NdJF6GWr8VP5kKXpj/cuJotkkkbWpMrdj62jsAssjecYhZWNW0ZlRvv4mm8jJomNjYnQzbE3mjoEgwkaX1um7xUkjVzmuSRzFRFTZXbXEyT/APlyfws/kPgke1zXYqRUXfsb/LydLYTI7nDE6Luv3L/yaOxfN5acv0b+t3d5e9ORF2KY/FriZdnUb1P5misJt5y9NifZ+PH8C6fYqYmF/Ysde1FNDyZ8BF6vR93JjZ9RhZZODdnipoaNXY6P1EVV+Rp7ELccH77v0MHhXYqdI0Wu1y8EG4aNmHWGNMqZVT3mC0NFAuaWpHdmzYhNDFMzJIxHJ3kaO0fpVrEXo5kTxa7k1UWfPq25/Srby6QbmwOKT/KVTBaQdg9bTEdnreozTUz3NjTCdN27pUhC6ZdksaNXZtatoph/2yn+pcYjErBkc5n0Vojn3uvtHaXwDX5dbfeibDTjmuxEeVbTUJ8yDZBCn+W35fUORrmua5LaqUqGJgXDzPiXbW5e40bPrcMiKvSj6K+HZyaUn1eHyJvk2eztMJh+cTtj7N7l4NQ2JSIlImxE7k/As+HgxDMsrMyEUUcLEZG2mp2cmn5unDD3Z1+SGg4MmGWXtk+SGmP2jN4N+R/0+mzFL3sTle9rGq565UTtUV/P9LMVnVzN/hZ5LkRzXNXcqUvtGLLo7GbWoqs+KcRsmC0lFW227a85vgQYbVS5tZI7o0ud2a9pB+2E/wBS/wDU7DSi4FkDo3Naj1S2o1NviYPCuxM6M83e9eCCrf1Ol4bjZMnm7F8FMBiUw89uvI5tOo/tXB8X/wABjcQmInVzeqiU00VFkw7pe2Vdn5W/8/ftl8lll8t8tmnW/wDdsd2OjT4Gi5UkwMPqpkX90xujoMUqPc5WKiVafqYXCxYWPJHfFVXepjcW3CwZ1S1umpxUa/S+OtzHPy9y5GiaFxki/SSs9rlcYPAw4Rq5bVy73LvXysRh4MQzLKy+HFPAlZLo/GJlW62tXi0j0tgXIi63LxaqEM8bdIpMq9DXK6+4k0tgo2W2TOvY1qGEw78fiXq9y11pHfohFFHCzJGzKn9b/qpWNkjex25zVQdFS1rYl78xkX04/wCJCODO5G62Jt9qvKa1Gsb1WtRqewsv73vy7LLLLLLLLMXhIsWxGvtKXoqhg58DC7mkT1vMu1e1xpp0i4vKvURqZDQb5Fwz0d1EfTBJufYmbDT4foMtUXaipXHxGI1jWsa2molIhZZZZZfLPBDiGZJW3w4oO0Iy+jiXJ4ssXQuGyUk0mb0v+BuhI76eIcqdzaIoooWIyNuVv1c/2E2xV6DtnkP67vvmyyyyyyyyyyyyyyyyyPRcEeJ12dy07MjO8eyN6U9jXfmSxKRERERETciGZeJZZZZZZZZZZZZZZZf1L0zMe26tqpfiYjDPw7mtc5q229nJhcI/EZqe1qMq1Xv4D1RXKqcfvayyyyyyyyyyyyyyyyyyyyyyyyyyyyyyyyyyyyyyyyy+Wyy+VzI31njY78yWanDf+LD/AAiUjcrWtanBqV5F+VZf3VZZZZZZZZZZZZZZZZZZZZZZZZZZZZZZZZZZZZZZZZZZZZZZZZZZfLZflWWWWWX90WWWWWWWWWWWWWWWWWWWWWWWWWWWWWWWWWWWWWWWWWWWWWWWWWWWWWWWX5dllll/cdll8lllllllllllllllllmYzGYsssszGYzGYzFlmYzGYzGYsssssssssssssssssssssssvybLLL+57LLLLLLLLLLLLLLLLLLLLLLLLMxmLLLLLLMxmLMxmLLLLLLLLLLLLLLLLLLLLLLL5b5LLL+5bLLLLLLLLLLLLLLLLMxmMxmMxZZZZZZZZZmMxZZZZZmMxmMxmMxZZZZZZZZZZZZZZZZZZZZZZf3PZZZZZZZZZZZZZZmMxmMxmMxmMxmMxmMxmMxmMxmMxmMxmMxmMxmMxmMxmMxmMxZZZZZZZZZZZZZZZZZf1GTv9yGTuX2qZU4+7aZO5Su/3bTKvBT2p8yl4Ke1DbwU29yG0XN3IWviW/uQzL4lycEM7u5TNJwQzu7jPLwQ1j+41kvBDWPTflNZLwQ1knblNbLwQ1kvqmul7EQ1k3qmuk7KNZN6prpO41s3qmuk9U1s3Bos0qeia6bg010vqiTTcENdL6ok8y9jTXTeqa+bg0103qmvlvc01svqizy3uaa2X1RZ5U7ENbL6os0vqmtl9UWWXuEll7jWy9wksq8DWS9wk0q8DWS9xrpe41kvca6XuNZL3Gtl7jWS9xrZe41kvcayXuNZJ3Gsm4Ia2TuNZNwQ1sncZ5e41sncZ5e41kncZ5e41kncZ5e41knBDPJ2ZTPLwQzydxnl4IZ38UM8vA1j+4zScENY/u9qGaTghnf3e4zydxnf/AEhnf6pmfw+Bmd6pb+BmXuOlwU93yKXgvzP64FePzMvrfAyKvmvXxWjKidrE+JlVfTX4GrrsYniVfnKv5UNV6n8SlJ6aeDUNXfmOXxFbl3ua0yIvY9xq3cGtMrV85XeAkS9jETxFannP9iGr4Rr4qLGvnORDI3sarjVv7k+JkZxzLw3mrd2NrxFiROu79BGeiz9DUr2r7hGs81L8DVPXu8BY2NXv96mrevZXialE2u96lX1W+01HpbRUb1US14Ialy9b3IKxrE4Gre7spBIUQq9jE9okFbe0ciN8eAkC73e4WNETaJGsn5TVDm5lytEhokblQZBs8TVEceZyqaofH9IieBqiWPo+0ZH0GmpImb0NULHkf3KaofDXSQaxHJY6CxrduV28WG+wyKzf1eJq7Q1Lm9X3DWo7d7jm3DYJH6SUc0RTmypvQ5ojuw5m5O85q1ew5lw9xzXihzHgc0d6JzNvYc0XxOat4Uczcc04tOZ8FOacWnNG9i0czXginM296HNPaczT0fcc07zmXqe45p3r7RcJ6qKc3r0kNR+VTVV5rk8DJ6zV8TVeovsUy+t/EhqvVRfyqZV9b2pZkRfQX4GR3B/zMreLfalCRr2IvscMja5tu2jkRreilETnSOpyr8hIo03NQnke1yIijYmK1FVLXv2jtjNhAqyvp67PcZGNXY1CeR7XUijY2Zcypa9+0XqWQ3K5c62I1qbkoxD3NVERRI2I3Nl28R+xqqQfSr09pSJsRCZzkciIokbGpaN2i7iFEkXp7Sksmc7MiWIxjW7EHdRTDokiqr9qlEyrmROwyNamxB2xqmGajkc521eJSEu2VG9hlRNiIP2MVTDImVXdpRJtnRq7ikJdkTlTgYdEye0pB+2eiib7NSBE1ftUo/xP7xROiav2oQ/ZpyN/vHtKQxCJq/aRfZoUhHsmooxCJlavaR7Y2qpSKR7JXNTdyYhEREcm8Z1UKRbsiXpqnYIP6O1C1oVLQYq8juiuwtaFRFQjVVXkeuV3R2CKtCoipYxVvkVVauxeRUTLYxy8jnK1di8j0SlGuVRWtXehK5zHUiibWbR8bGpbUohkc5VtRYo1XqoSucxyI1V+YiI5OkiKPY1rbbsIZHu3qLFH6KH/xAAqEAADAAAEBAUFAQEAAAAAAAAAAREQITFRQWFxkSAwgaHwQLHB0eFQ8f/aAAgBAQABPyH6mEwhCEIQhCEIQhCEJ54D+/tPgHDyfD5fd5ABZl1O3/I4dwHwzh5Ix2lgn108cIQhCCRCEIQhCE88AA/A+V8F5IBmfln8jwsy6+SMB3AfDOHkgHYOB/44QSIQhCEIQhCEJ5wAD8D5fw8kAzHyz+QA7AOwfIAdwfY+RcPJAPlXDEYeA8CE+mXlJEITCEEiEEiEIQhPMAA8j6Hwfg8kAzvwz+QAyHU7X8gB3t9j5Fw8YDwPk3Dwgwww/wDBFhBIhBISEiEEiEEiEITygA8j6M+D8HkgGd+efyAHcEdr+QA+WcD4FwH5IAMw8B4h/wCGFgkQgkQSIQgkJEEiEEiE8gBF9Q/x6OTw2kg/BEwKjgolb8gaoqtNlmF3HiITAisKd4LYTa8OEn3H4QZxBmaqZcbkPela4XIhiTBnEUxVXPiRsJ/jW0CZCeAQaJ9WsVghYQSIQhBIhBISIQhCEIQSITAjq5fpB5NzHyEPVjG0k2z4ruMQhMFJq3JnemZ9oqDT9iucJSfJxLDuX3v3gzwC7bHmbB8A1oah5I4MiiTl2XXDhMRrDNlvOAzhrq349NB9UdU/x6miZl5UiyExaalfpDNI4ezgMoptYX/lWbNaokNEGiEGhr69CwgkJYIhCEIQgkQSEiEEhImIgkfEfdKunSLKtxz+BdGlgIQWAYj2O+RojRfgqbbFo07Oa/GA0QWAdza9jEUTaK1Ztxj2m8CYhmYTvnm9/wAB0tHO247ff89/nDYhnYOm/PPsZprpF8xZt9h6E8Fhog0NDX0ZeBC8KwWMEsEISIQSIQSEhIhCCRBISEiEEhIW0aT1wSRu1IyZ2f8ABq2uvZfoaIQSEhlVWK9BTG7UTC7UvzDUovW1/sQaIJCDBknTPkMVT2URS9qFLFTN8go0QQUYmaXsNE1O6kZa7EMhTvs36FGsyCijljVmvJi6e2hBF2pCc+exiEEzIQaINE+mQvJQsELFCFgiCRBIgkJEEhISIQgvC0QhBeB6CDRBLBkxzo1EILU1G3HOsMIajOzgWOQzK2hohCEIT6hYLwLwoWKEIQhEEhCEQhCCRCE8TRCEEbYvBCE8RQhPDUytiEIZ5k2EabT1Tz9BsylGzC5kINEGhonlrzF5KxQsELwLBCEJCQsEIS8ueNkIQRox04GiEENJSm8Ua8ANl6ilM6TFtGiDRBog19MhYLwLBC8CELwIXgWCwSIL6R+NjGiYIWD0M1lgZDTHvZowpkQjjxwrmPBjH9QsFgsELBCwQhYLxIQhfUvyTwQtfAtMzgyXqAZEhs1St9e+hUiPT+xATZ+enfQcQCqR1P1RXCk+WmBczXix/TLBCFihYoQsEIQsFghYoQhC816bJJat6Icz0X4DYQka/TzFNRuImUdE2WqSPBjxXgZmN0ps4vZGcqlyemjbEb/eGWfvRNZ3hlLtqZ+l+Rnt1jX4wZq8FjH9ShYIXgWKEIQhYIWCEIQvNysDa+/IWl2/bIhZJ+heImc1Ul7uBZc/dPZ+RV29EdjY8Gu6tD31q/shKhTLbIizm7HZp24PpN5mXC4NOgHihos2Jgx3M7AG68WbOCKSbPOJN03GbVu4chH17Am/MO8r1cHFQy2q9INj4Ii8U+ODGMf06wQvEhCwQhCELBCwQhCF5mrPW/RnJqvly9Bdr1NCAm8NkGDm+ZejFkaZzwc6Z663ALxZ3PcGiOaG4S8EMka6/ujY+ZzwZfarLJOdz4PtTiAZfrBYNJ6j2MiMT7j+G7J3rSN5ou5mzeuCEJtZrUTzkr8TuZzfzT3ozgjUaewZCSiXDBjwf06wQvEhCwQhCFihYIQhC8xYPsxfyXtZISclm+wiSJScMeLEz7lGfNa+41/q59V4tJw/eM1o+i58GUbu3DgZ6iPT80uzkfC5huSr1yqu7kL9bf6YKdFvfkHcXhHxUtBnDgBVn4/lD8Krmgv5eIeSVza4jGPB/RLFYIWCwQsULFCFisEIQhCELy2JiSWuYlU+5lWUHALedt5a+BkWvOrJe5nzV9g1IzJ1WBi1vtLTwegsJDqV21Ze5rss+0EBNojbZhanyO7HzUVltU0bazyGGypZFcLoHlZZLlkTMv40c1lsjeiZzBzHbFjnw7b0QJe7HqHjmK9BZc6heo/AhS9c6vOf8mJfyNj8BjH9QsFgvAsUIQhYIQhYLBCwWC8fJpFx4AVH+YT8j/rPm+0I2X2T7NHBZF+ddcEL3ugQs0oLx3hYc0n/AGXrjAmzGZaaX1MtZrgU/bCxV0RmU2hdDIYUArUPRR1sr9CINVxRSWa5jr50cfkcjQ+WYYjSfbuXkOA6GWVF3aGbcW02tQXWOji6jWk68y6Qm73jW5aKx0GzfUpSKa19uMh9H8T8HQGe4jU80ZbFGxT+WTtA1EdfP4Q60jvmfoNjY3gx4P6dCwXiQsEIQhYLBYoQhCF5P75k8Dw8S3twrDRXG9h0ZKtOwfyQjtWDj9y/AzJZmo6f3yM/Ptnq8T0Xj0/cYXrs1dy/F4sPsLe4/EBC2PDfbCEPxoVo+Q3tWaYvIWm4tGi2BPMKi/m2JeW8i+8fNtPMcyEGVWa1mcnpDMOaU5P6Ev7rR6nrS9sLCm1xNdMN1vwXcz5N3j0HF9TmcDSW8NkU6JrN7JHROTf+iyZgi7/rKNjY8Xg/MXlrxrBCxQsEIWKEIWC8CF4v+o1Xszny3wIdvW9ghh8O2v2JG8p1M4g+8k+5ChzQa1Ua9RzYp8jc5FNT7D+LZns70w+1595SnxxLMuNSaKS7dRXuut2d0N2hMmZXVanwe7G/MVvILgInVNtfUaqcia0dYXki/bjSlKU66IkmffoB9P0Z+jPzPbIpm/8Aak21PvE/RlQ8kuGghsbGyj8FL9OsULFeJCELBCELBCEJlKUomUpSk11urVR9VBRzSJg+HRdVQrmvftDPoTKt52EZcEMdVoIgvhu42X51KUpq57oDNOTUfbFF3Blz2IycbFmaTXSQ+Y3GTlpNNRpq3uRYGeke6aIUtZJwC9ShvcpSlKUo2S5m/wBu7MfM8dY8s0++BrFS2UyX9LotD8XENlGxsoyjZRsv0S8aF4EIXgRSiYmUpSiZRMomLAogsClwUuBi/cJnSE6zdnkK1qJRrqIehvUGDddCmRYOaZy5iI1+bHsKD0rjh0KUpSi0gq1aU3D3Z+nTGNvqyq5cxiJeqDZIKeYZvm+BOMZL2BHU1Zxb3bcpSlKUo2NjDs4Pa8TgQ8Cx4RMzyJJEL2oo4xspRso2NjZfpl4UIWCEUpRMpRMTKUpRMQTEyiZRPygA/d1tWheZ6ay6woVpp11YzRuk9M0iWt6jjImwTylDgl4wKUywa1adBjeQtkP3TRE6BqFXp8v3tsQXRnLW3u2UpSlKUpSktDosmryFoumDzyda23HiJM9NilKUpSlKUv1dLgsKUomJlKJiZSlKJiCwF4QLyABS09hZVSqUS6hCT1okp7mjoSES9BsUqdfoQAApSlKUpRy26jYGDmF3osuKwq35nl1cC1yKmR5LqyjZSjZSlKUv1tKJlKJlExMpRMpRYC/yAH//AP8AACl8Ao2aQHTRU+D/AGat/cpb3GylGGxspRsYYv1tKJlKUomUomX/AFAMn/8An85AUuBilGyjY/AD+sKUpSlKUpSlL/sgC/8A/wD/APwAFKUbGxsYYf1IpcKUpSlKUvgF+hAH/rxOr/J8GD/8ABspRseA/qSlKUpSlKUpSlL/ALwz/wD/AD8n/wD8Bsow2MP6gpSlKUpSlKUpf98AP4P+fA/8AeAwww39VSlKUpSlKUv1IH+AHV/kAAAD/wBApRjfgh6M+oxotUdBFNK6GHHC5tpEbQyPeeRP5DYd1yHVk08tWRtHekHOr9aljJN+kGTX1szLyXUkNGbSt38RtzoRyDqczoIrorqSyrPZIporqhoybvaGx6yHqnYW060Iq+wU0ZzhBV+wpqOcyN5dhw0f0Ftdn9HeJO9ob66INeUraC46PQ1T2C2T0Y1Kv2P9jefsv9kc52P9mZKHT+nI7P6Jzi7D/ZyOz+l4XY/py+z+iMex/Tl9n9JXF5P9nL7P6KrTsLpOdgmrO3+jSs7f6OOnb/RJp2/05Xb/AE4B2/05fb/RMcivp/Tl9pBxpfQ5fb/Rr1S84fKhr1UbwTlVl6DXwZckJ6yv0IcX0EzT0we4+gmOatocvtMyOH0Ov9CWqTqjZv0I6pPQtmrXQjr2KW1N6EtexRO0fTDc9JUu8q7SENV7HNTk00fzDoAWvRch8eOoTNE/Q6aCbom6MfGjuE7d6we8XpTN1f2HyHpSvcLL7Ak1a9aLei9DQq8HV8MBfK+Wc+TUes+des2OTgi3nPWhDLO5g2uoz52G9hpZ/PQ4D2CEpVc5qbhbLl7HuM1ews5m/DmLPWPR/omqh5L8sT82e8q7vIvwTy+EO8b7D8EJqiV+NEKr6Lf2GRnzd5f2VzmvQu4k9fyfk4hrlzPuZm9IcAq75n2GtShfHLdkjPq6FkhBgDjUXwzM2RPuLS829WJ8lN2W+Y3bRC8zPcx9JeFB5679hQZENK1ODmbYbrcWJSJHU3oOVtZ5jIm3os+xkHp+ToND/wDR0EbguycB0mpqUb1ms+x0HwzXA7J5rUkXqtiHZ8GWgi+4lIxflvsCWmqY84lXFzn5a8Q81evZmfKPZjzEae4uKVuiapHzOGUc9TSv0MyavURpNd0JNbXuiWtLdfoT3wPll7EeC9jLvOnYhpH1/Y1fD56i+Ojrii0mcn/TgtQhwFPOAW6XMLZfJkcc24yaIHFfMaDTi91GY/3JSG50CxlrgE0WrIVWa5qBLVqugE9l6Dslqj1RbnnXnOftmXuSw25tsY4RshpZLZP8DiK34k4K6HW7R/cS5okPjD2J/gKQp6CxGug0nMn7DK6aodAxNrF7FVLTlkQpJ6wTYc7N+40LWGZtrs9Ow50EthpRJ6zIUEK46s1XxHt6Ol07CyEyXAWTZJ6zIWpq6mRq1QsaWlI2HK82qWQoi0jO1qhWXNHIHbP0kagRlbJ7jbS6iNjjpSyGjJLQ4COsyo5mxyBFVmk0NLoLPTMwmpRsRR8aEbFDIEXrsiFSbqOQRHNBmrwyFTQVNTRtqEbGSurU4gN8RKNNao9uJEJQl6mZrEoiUYk30YXcZL5CctYplVLpchDtFzoJ1tji2qPibos8hik3oMwpcFnuPMmxZ5MXUxLYrhUjPcf1ZKIiYVtK8RJiUfIfZsXNpYotJba/cRLaJj3Q5NoVFPQYb9ojxc3+Qv8AqiJ4bcm0XVZdEawv/8QAKRABAQABAwQBBAMBAQEBAAAAAQARECExQVFhcSCBkaGxwdHwMOHxQP/aAAgBAQABPxD5n/DFiIixBBYgiExnQQhDQM4pSlKUpSmkQhDU7vmBgH2/V/mejQ6jbPjN5nu30z4674z4z46ft7QVj4Th0mum3/K9G/33RNa1j4TWt/0/TRkWP+wWI1NTQLFixBECxBBBYiEIaJpSkKUpSlKQhCENAh8v3Y+360Fmb9LXPpeunno07pwnK2Tpt+1v3fZU18ZrWtb/ALXo3++6JrGtY+E+Nz4ujf8AxnSta4WMT/xI1NcWIMwYiILEEEEFjMEEEEEaEhCEIQpSlKUpCEIQhT5fu19v1f5vpm+t66X3vVnx1RrGPxd/netmra1rWMb/AL3qv8B0TWtaxjOZ7v8AGdEx1I6Bjcj5GhqaGmI0ILEEIIIIIIIIINAhCBENAU0hnFKUpSEIaB8gcPsfp+J8HUPhG74M+1rrPsb93+D6TGMY+Mmb/k+q/wBB0TGMYx0vM93+C6JjGPxAj8RqamhqaYjQgggggggggghBGgIfAIQ0BDSlKUpCEPiNn+B6Oh963pqOgzlpbsdBjGel0v8A++lbGMYxjP8ARdV/iujQYxjGM5X+K6GoOgY6Bj4fMjQjQ0NAiCCCIiIIIIIIIIQaBDQGgIQ1KaEppSlIQ1BnGU8aLIymKExRMTCG46ko8bamy32+7I+1uMjcdzsG62CzYuMI6LtMXA48nGo1zhrdTEPyyubPRA3XzbCVMEXUHROcG0+ExjBLaF6Qf2BmVGDHQeVgIAiYwgcrk8kubMY1glgsybc8s6VCPK/QTny9LDeOYJjYzjqS9O01rymMdK/8ZqaGhzERyRzEEEEEEIIIQQhBGWgYYjKIaAhqAhSlKUp8L7nS+5+YGcHl4mtq8B6DwW1Fvd+3pNoJcD+xfQGLG67ckMcIFLoDJkgd7yRmw8pukgHHd1wHkd4AoFK6Y8vqMwTWb7ZjsSDuBlfsYm4c+pyF6HNtGZznSYflOD1uDYGa0ybbLdx73Gw+pcW8xDdOw8Gf3/0i8G2bgX7h9ExZSa3c4s2JiMKvgy/fiTpRk6OgeAhHjy9H+nixzDPuyfcM2Vk0XStf+dSNDQiNCCCIIIIIIIIIIQgjLUAhEIQhCGgNaFNalNDe02O5+iY1QPYyP1+5k885LZp9d0UPPTkdA198H7ardh578P4skxXLiSahs8t6bddr1tzRQ0gX07Z18bp76WZJnOROATB+Ly5LA4m5psxEZx5AH8lM32Nt4Z2rd3+sI6I/3nyWCd9khbTeq/QRWKN9t5m093xZK9p4F/N6sDoul8N4Z1HxNCIiNC6Q2iIhCIIIIQQggjLQCENAhoCGHwAIQ0Jt+Cp8MBNjqWy7We6Dtkz9lngx02L9sXYHo5BDCZTOjd+nC29GkEq8ZQ2XxxuGP5ZeB8pYIxhAIA7uFNNuz42/YEmOCSMhDke8eIfsshEr1F/eLZt5QADDvhS5bdZvFbhJ3mFM7AODvC3YcYefssGgV7n9pZjxZQDAAZxtmclnjd6Awx0zcGesylmZ2Uz8LPWOdtzj74jGNocA7QzhS2G3s10rpXx1NTQ1NCIi6RxERqBEEEEcQbwQhBCEEEIQghGgNAahPhANAwYfB4t7S0wY7wbajOFicQLJsDDctjXDBDCJyWcY4gyJYDR0cc26HmGFJymDE2BPBoPDPCYUbk1rWtfDU1NCPgREaERBBGghBBBCCCCCEYIIQhCG8I0AhDMQhDQGoDHx3tDoHDdNXCOTUYd7lqMNmmsxi7pb57WZwngWZWcpj78lwOmbAyIAd5kz7EYmJ22IO+9mSTHQOpHUakxEajQiIjQjQREEEEEEIIIQghCCCCEEIQ1AbwbQhm2LH/DFiZjeD4JCd0xgxbJmW3ZdoZtxmcrYlg6HZ5YLj6GzC27Jfv8A7hx8/wAjPCvKzNdtmA8OLCm8kzBOgZuampMampERERGoaCOkQg0CCOkaBCCCCEIIIIQQgskYQ/8AxYkhvYsbwcRxZlhswt6YG8OCGDGmSgcZJFUYzzDaO7It5Oin5hs/5yw4S45keGcdjrArRGXDpDZsChJCEJNTU0PiRoRERzEaDQaDUNQIaBBCOkR0jpBDQIQQRBB/+NIWLG8RxozDeMkN47I2LMsJ328wg7+LevkJ7S7EGeYH3AxGNzdh+4V2idj9yiwpjKB42H6WQAYZ3IwdMjmLblsSjEkhCSTU+J8SNDmOkcRoOPgCOmoRxcDRyjU4aDQdNQ6R8Q5R0iOP+QRSyoA7qwfL9ceH1zs6X4C9SRs746/N0ObhlTPhA7bLmQb9MZc9PrbyXEg+gzx1+ukzEY4syzieK3Mw956NiddkfoqylwzgKeMY28fpQqJOEH3nC36ll31UEGCDPtD1fRlntcmhJIaBOp8T4kRHJHF2iIiNQ1COkXIjmOmjhcD4A08I+QCOkRx/wbfYsmHjN0uFLHJKNZtrt0Y/i4fpu+IGdRVh7t1GB2qOx+T6J8m5Yzv1yE6DDFWwxSvjShTN+7XeamkYw+CNut05ikY4tm1oGTjUye2geY0kmT6XCuHsy9WaubdU4B5WBhkw5m/h7gMf44b2TrnZwkcZePXb6R2njOSZMJjInZOpBJGn46wegi4I8i5ToITTFq8oZM+Ti90xsA7sYlyMA7+Z/wDvxB1PifEiI5I4u0RGg1CIiLjo6I6aOFw+AOlzuEfIBHSI4/4Opjyjjj2WyTNjuwxt6GXlwBXslIvtGAfaLb7+B4+Udxsx7n5OW1LbBfoJxfDf5CCE49ShJ4iKM5ThyAOI5Cd42zhxnSo456fzcdZHJKxen2zTKlEcEno8K8iYm6ogcDabpPh5hIOecAzpYW84iH25F871YUalBTlTv1/O083AlKmDDcz36fmwMPExz+i53zWPAcH2RCKqnIRTkDzb+4cF2QuXPdZPO3TUdDzqfE+JERyRxdoiNBqEREcXA1Dk+QCNPCPkAjpEcf8ADgH8mN/ajlLva/iIWoJgHQ6fjUCxfHyrddc89j+788cZr8Wb1D/SRhH55wxmQZp0RoOelxJMQpjAD8uqGBxtnTo+qDAGzgiKuGWzlwo8rMxvdGFKEwp5cT1izZs5nKyRx0l9FX6pl5w2f0Z35ZYd4YbJ+s/oVE7f4qbLEy34JZbj8A6HU+J8SNDm4RGg6ahoNQjRyIiUtBGgZXL4DlcNBHSI4+ZECynADusH3DlxmgqNwsWWtMY21wk8Hz2/6qez/bFh/eh0OiAyy+TM9Ufo6Dv2+s/f+h4SbnHK/VBM1GhXMcjGKHqWR70ntCURHtiu3FlN2BPEUcJbCw6QObGye49uTYmUejNu/wADYN/yrOGzL7+oGG4/qjAqz+5v0WESbv7g3A3+WLlARjDCVTwtrOC+oths6YKPDvTuUsuop1NTQ+JGhzHERERoNBoIiXER01FLQaFLeUOgZXRGgZbw7fJZnHgXccHlhdXm7g8cKdVF3/peynmPHUV1xJJjxs4F48OOir+pYDu27rJkcHzf5V706uEXdmGo5oLZnhofIfvq6GMzZmahbs8Mc3fKT5NiMxgc+AjqW4P46SPA3DPDhTnPEEWHi4NMN+yiOmA+b1sd8RlmQJChsK+uOAGi/NiCw0qqHfuEeaZg7IBQV6+dkfGN20xjF9p4N8TLb1O65eIyWBy9Zc/kZmzHC8exsZGB9ohAHnHB1/BEufvP+9Ostdd6b7wmMKXnyefws7mlmllKWUupqTGpoREckcxERqGg6R0iI4bhLaGWopR0lDKGGUpSlKGGH4u+0AVGLyhGOWg9YahxCc8uAYHcMeeFxWnxfABck/iRE5du/gQZJ7vXshvOrny+perYk62+mbclEBjKywHz0ZIQDLAHBlyZg4M6Bm03bMA8dhMpcdPpZnWhWw6Z/MF123wGxyuY2OeUMTPIk2tp5u3g2yGePsUZOM4pC23rFtm8Gl/DO5M/iZr5p1gTsenxOzWmcgyTMO6vnmWWVERxjfPbyeYzICDxbKiAfXOIDuSmYTDO+fI/U39W4S5k3I8hftZGkd6Xdh97uWuSZC2V4rkrld+Xl8vdXf3qTlllLKzqakxEfARoMMRGgiGGGGUMpQwy0DKUoYZSlKGUMMMpQ/Htd/22Imcn1/pLoIfPa4U/q/8Amo8Px9HmoCho/Ju48ucF1f0JUKR/mM9ieHlzhWMYKnv0ZCDs7q8e2rjZztt/H/sHj9O8MdOZjM0dPqDWxw95eYxc5uPx4POgHNHtIGy2EnHqaEykqcgy8AFyG3B+T3isQ9kfkbr1Jn6QtnGoxjM9W0ccw99ZDUPPauV9SOPjeXn9lGJkI6nqOFxVTD4xWfpGCXA+2wfTf3qG1O5lLLLOE6jU0IiNCIiIiIjQRqDDKGGGGGcpShlKctoZSlYIhDKMNA0HQEYsZW7gqIff44R33d18rLn11mrYf2WmR6T7w6Gd2Snxg3dv5gFuTmHLgMx1ay7AWYH7oxTe5OFU9LP86GMOnId4MP7ig6XjV2V4YW6xZGdQiOU+S6PHDswGc6e9xjAAB1E5WLbUN+MchFovmiiqiKzhMIdBPUx1DGMR2P8A5GUfW0vYViDBw54j0cqcitvyLmG8uPKjxV0kotZXfmdTsU4aDoHUamhGhoREXS4EREREpQwwylKGGGUYRqAhCGlNKa0IawPg2/S5GLneUPRFmUoF4PPxn6J9qAcKWUjk+J9VLtzAS/A+Drci+3OupcjTvvX6PxDzgPgFkB0m/fbftNaxihRUXL5PQbLtY3YbmyjHglx7oQxAmJWC4xrOg9viJmNkF83unccCxivuJn7oRXVH1MdB0XWo6hBODFtl4d5XAth7cw6TocX3AuCzMA084sZfblmOhc50D8CDqNSI0IjQ0IiPgIYYlKUMpRhENAQm5bMQpTS4NVNKaUhD4h32yWwXFZ0whkxh5Y4XyN78j/vo3QbcBV7HOB+nkxVGCeqB5K4ToN9/rOpazd1nTPhVkXN79LzP3pu6dBB1tn4hd6sczu1LILqTuV0ta1rWta1DsFwTPYm4BcYfqy92wGBGyOR2PN0m8N/DBs+e81rXzmta5zGv/CaERoREcRxFmzDDDDDEMoZQxCGpSE8l5IpSnwoGhKUppS/Xe9767cOYysmbDaMnJqZzygzevyNnqgdsxHyYAfwNiAJB0jNulr56PdvedQxrrnz0ta1rWuLCTOWMZ292TpYWCO/FvYTgZ0+tOLPBDZ3bKpcrgd3y8z53lnznSta1rX/jI0I1NBiIhhhhhhhjZGgITyxrU8489EppDQGMUpSlIQgLE62Pew72Fj8B7N7Mj4B0PafInyLf8Ox1DHVsYxuzdSpxAdTHbif38IwTtvhMsbr7sDNfhFa3y6g/9ZoaEQwwwwwwwwwxDQGMaRoCGlKQhCHnFMIhQx5XvHnHle17Xte17T5Xv8J7Xte176dnyBu0vne2hjnOPwbWMYxrXQNdK606pjoH4jU0NTQhhsw2YYYYYYYhCEIQptilKUpCFKU0zQNEwjyjHre8ec00/psvFlZ2d73ve97z5Xte176Xyva9v+ABrfe9730pvefOa6TGtfnFAY/EampoaZjQbMNmGITONBoGgQ0SmEaBTQIeekvve8ecdjD7w4dn3h92z7ul7XtoY9/+HBy18JF7Xs27qz5l7l73tPlpfO95873va9p873kzptdQxjoWutHQI+RoRoRpmzHNmGGzZhhjQNA+QZplNMh5xjqFNI8r2va97do973veM+t7z53ve+vtnysO9j3LHuWPcvfX2SHqWPewt0+ZY9y973nz+H3db21Pa9n4BzmtYx0LcGjuaD8xHwPhmzoNmzD/AMQff8XLs+Ay73te9jp972+Dx7ye5Y+LDxYeLDxYeLDxY+LHxY+LHxr+9n3b3vbVx8Xvrs9i9i2ddG699f3t/XU9r2+LukxjoHUG5Jv/AMhsxqa5sww2bMMPxI0Dz+P5wrPSae35Dzs5dsmZSvNn5l+bJ72RZ2feznte17W3rbupbOpe5e97XvZ97Lve17Xtbetv6t7N7R5Xte973vHnpL76Tzsu8Uwt86THymKmL4mf9I/I7EX9QN+27frb8jxIMouyf7l3b1hX4uQOdwMjOMD2yX4hj6kA2ZknY0bJDu4PzPZzHfJ9ofB/vtP1f4h+L3WX8Q279CfdivJAv9IY2r3fH3zizC4fdcfZjiEHOd/TflMM/gbOV3Qv4GyMeW/gGRynYefsNl453wfjOY7AHoZb/nLdle7A/eZewTvkfzvBdu7kH5d7bk+cwPzdAXYz7ljk+ge31zZVTnKPH1c2Xv6Rw/hcf9xh2/g3H5n8kfAa/uTh8EPb8w2cWeAeX8yTKTzm/c+MndoO4Z0zmYmyEOWij5AveZXpd84zUDlpvY/Nm659cf8A3sEFF85383vFhlkVf5MFLiXHP+42AEzz/uVcfpnAZHPnAJFx0ymce8zjj2d7ZzMGFOmUzG2f2jV+0bx/9T/duvnhz3/N2PC5RXaOmTH7spsb+ov7t78cePrvCga6i/u3Z74mT82fY3h/3O8wvCz9szuN3qkJ+YHAuwh/dxh7iz+5Ph/GQ/uNoo6LM/mRcgHbI/mWeqy4++bNvhPkfnN0/d1J98wD7sY++blEO4x+43fgMs/u6bByn9mZHfvkH95kPuP4GcxiAdxL938I5fjNuYzv8zMY8rnjnP5kcZfaB98yzDv28fuwuHtMfccRGR+6/jMhyexJ9xv5kD7LA5H5wfhlsGXsZPswOfM2/wAMNhkdsr/MEZfMAfxHAu9lX+bdAfIB+7DAC+z+RILuvIH9yaEeJn92HwO5n7G85B2Ef0s7IPoDffDYod7n+L9wRg7/AOkx/N4I/wBG/wCyUZl5R/L+CyQKdHE+3MMwV2CvvMbIz1cv98H4ZUDPYfXY/LZiHfh+k/LZO69wfszZOE7UH7GaTkzpyPq5nq8YB/noFhe4Ff4XSC4wnQLP4WZNPJ/SfW9kGZf997MgD0Afo3ZdgF0//VY7gnIMX1byAfrub7vaH7U9D/xfSDGKupW/q5fRX/wH1uCB1TB6OIPvcQf7d2EzK+1h+nX62VIuD49vSwsg3X/f9LOz0x19DrclN0NrwdJwmOru/VlIeG3+Uzm43P8AFGt47hsGOxhtWTAcq2eQXYm8MAGPQOk2Hz9Ef+RNyHV6w5MY2B+2BO5HrpIIIGT4j5tgYPDwPtdeVgmeQEPtZl5Zgukf03+IN7taJZhOB+DZnVtxtEWTzY5P6WfQyc572/A3TjpYMvbJyjxBhnI9MM/5vJc87dRkIZnAP2hgAecjszKzpj9RCZHIcJPbxz7CEOd8P6mWxR4Lz/cNtdr3PZB/aI2T69LK+hDB+vWdph7WH6We1Q9hJmW3VMv1sDKLxh/BYL6h3+sbLepll9eEccH+vFz8vcX9zZjEWHjh+z+bdnw6TD7m8SZyHZwT68ljYM9xzj6O9mZN3ufx/GcHhpMfh2jqf4UJGxJ7mM/baGrn9xD8WfYl2BfxvOZS8jCyNqvYZ/e832ccvzG5+oP7JWeD27P8y1jY9cH7b/q5LP8AU2/Vy8TvtfZxAYI7bX3wTnHP8RYuO1g+ohcw/ZP5LFx6UH25sIb2fdVg7o7lEZirpn2XE2pAxgO9tczuB18bBoEO4z9zZQ09Bnp1nfpnKJ06JILIDgDH24soXcwfre5hBn72WJZ4A9OsFF85dX7xCgBt2+3EZypjN9jAjzIbA/hKZI7AL9Y5InfL0uuU2MYbFB/dkUAmGfwbSnZmMFkOthvP1N440N3+xiAwwOYjXNsaj9ISJA2Bgsw0gbjx1N5zf3o5XzELBwMc1JlvDnpOzssoZ2geO1wObYIAoA2bCxXZFTni3M4SI5SZOx+LGQAYC6MqY6usblecvmcI90DYju+J1AAwEnaDgFt32C+rg2QIcDB+tk9nMGGYzj+bhDOQ/a8KUyHRDsrgT/2uIf8A1jtdv3AQY/rjAbLYrnZYCRng8EgGEReG3QmC/Kj4nYO6fGk5UctNwbpVk95+baNuEuxcHZm74U3Y+IxwydMXZ7n5m5PdmJnd3ZPirixdYG2ZudoeG5T42bvwj24xzghVI4ZQYMc797eUZM8ScA5ycOkgJZTmwU+LZ+5LhQxz9Ym1E7Tlk8HaEG/Ixw4E2Gz+LJ7uMdCwwyDECGXbn925md2bHWOqT9TQz8ch5ncQbKbnqVuc5Tj08pc69wT7cTBCemfYcWKFHqLcwGNwy+5GjJ3E/ll3IDnA3pI2fYcWGYk2fN4npgLzgx+r/9k=;" vertex="1" parent="1">
          <mxGeometry x="12" y="140" width="846" height="283" as="geometry" />
        </mxCell>
        <mxCell id="v-HFWOE8uSQpCthZWPPG-4" value="&lt;p style=&quot;text-align: justify;&quot;&gt;&lt;font face=&quot;Times New Roman&quot; color=&quot;#ffffff&quot;&gt;&lt;span style=&quot;font-size: 15px;&quot;&gt;&lt;b&gt;Ideas whisper, and innovation begins to unfold.&lt;/b&gt;&lt;/span&gt;&lt;/font&gt;&lt;/p&gt;" style="text;strokeColor=none;align=center;fillColor=none;html=1;verticalAlign=middle;whiteSpace=wrap;rounded=0;" vertex="1" parent="1">
          <mxGeometry x="464" y="364" width="346" height="30" as="geometry" />
        </mxCell>
      </root>
    </mxGraphModel>
  </diagram>
</mxfile>
